<svg preserveAspectRatio="none" width="100%" height="100%" overflow="visible" style="display: block;" viewBox="0 0 172 32" fill="none" xmlns="http://www.w3.org/2000/svg">
<g id="Frame" clip-path="url(#clip0_0_82)">
<path id="Vector" d="M16 0C20.2434 3.20373e-07 24.3135 1.68535 27.3141 4.68594C27.8526 5.22446 28.3483 5.79775 28.8 6.4H16C13.4539 6.4 11.0121 7.41137 9.21168 9.21168C7.41137 11.0121 6.4 13.4539 6.4 16H16L29.5282 7.45547C30.5325 9.04592 31.2489 10.8022 31.6438 12.6422L25.6 16H32L31.9953 16.3977C31.8935 20.497 30.2208 24.4074 27.3141 27.3141C24.3135 30.3146 20.2434 32 16 32C11.7566 32 7.68652 30.3146 4.68594 27.3141C4.14741 26.7755 3.65167 26.2022 3.2 25.6H16C18.5461 25.6 20.9879 24.5886 22.7883 22.7883C24.4762 21.1004 25.4706 18.8486 25.5883 16.4758L25.6 16H16L2.47187 24.543C1.46762 22.9525 0.752802 21.1961 0.357813 19.3562L6.4 16H0C6.40745e-07 11.7566 1.68536 7.68652 4.68594 4.68594C7.68652 1.68536 11.7566 -4.63489e-10 16 0Z" fill="var(--fill-0, #565656)"/>
<path id="Vector_2" d="M73.8196 24.3547C74.5716 25.7644 76.0229 26.6523 77.8938 26.6523C79.7644 26.6521 81.2152 25.7644 81.9672 24.3547H84.7816C83.8504 27.1718 81.2664 29.0552 77.8938 29.0554C74.5208 29.0554 71.9364 27.1719 71.0055 24.3547H73.8196Z" fill="var(--fill-0, #565656)"/>
<path id="Vector_3" fill-rule="evenodd" clip-rule="evenodd" d="M114.803 9.40781C119.091 9.40781 122.095 12.3574 122.095 16.5906C122.095 21.0697 118.763 23.6101 115.24 23.6101C113.055 23.6101 111.198 22.6266 110.215 20.8789V29.0172H107.62V16.618C107.62 12.2209 110.624 9.40781 114.803 9.40781ZM114.83 11.8109C112.072 11.8109 110.215 13.7776 110.215 16.5085C110.215 19.2397 112.072 21.2062 114.83 21.2062C117.616 21.2062 119.473 19.2397 119.473 16.5085C119.473 13.7775 117.616 11.8109 114.83 11.8109Z" fill="var(--fill-0, #565656)"/>
<path id="Vector_4" fill-rule="evenodd" clip-rule="evenodd" d="M62.4469 9.40781C66.7074 9.40781 69.7116 12.412 69.7117 16.5085C69.7117 20.6053 66.7075 23.6101 62.4469 23.6101C58.1864 23.6101 55.182 20.6053 55.182 16.5085C55.1822 12.412 58.1864 9.40781 62.4469 9.40781ZM62.4469 11.8109C59.6612 11.8109 57.804 13.7775 57.8039 16.5085C57.8039 19.2397 59.6612 21.2062 62.4469 21.2062C65.2327 21.2062 67.0899 19.2397 67.0899 16.5085C67.0898 13.7775 65.2326 11.8109 62.4469 11.8109Z" fill="var(--fill-0, #565656)"/>
<path id="Vector_5" fill-rule="evenodd" clip-rule="evenodd" d="M78.1813 9.41405H85.2384V11.7344H83.4184C84.5208 12.9705 85.1584 14.6234 85.1584 16.5085C85.1584 20.6052 82.1544 23.61 77.8938 23.6101C73.6332 23.6101 70.6289 20.6053 70.6289 16.5085C70.6291 12.412 73.6332 9.40781 77.8938 9.40781C77.9903 9.40781 78.0861 9.41093 78.1813 9.41405ZM77.8938 11.8109C75.1081 11.8109 73.2509 13.7775 73.2508 16.5085C73.2508 19.2397 75.108 21.2062 77.8938 21.2062C80.6792 21.2061 82.536 19.2396 82.536 16.5085C82.536 13.7777 80.6792 11.8111 77.8938 11.8109Z" fill="var(--fill-0, #565656)"/>
<path id="Vector_6" fill-rule="evenodd" clip-rule="evenodd" d="M93.3398 9.40781C97.5998 9.40781 100.605 12.412 100.605 16.5085C100.605 20.6053 97.6006 23.6101 93.3398 23.6101C89.079 23.6101 86.075 20.6053 86.075 16.5085C86.075 12.412 89.079 9.40781 93.3398 9.40781ZM93.3398 11.8109C90.5542 11.8109 88.6966 13.7775 88.6966 16.5085C88.6966 19.2397 90.5542 21.2062 93.3398 21.2062C96.1254 21.2062 97.983 19.2397 97.983 16.5085C97.9822 13.7775 96.1254 11.8109 93.3398 11.8109Z" fill="var(--fill-0, #565656)"/>
<path id="Vector_7" d="M128.652 9.40781C131.876 9.40789 133.869 11.238 133.924 13.5593H131.356C131.274 12.5216 130.319 11.7564 128.68 11.7562C126.96 11.7562 125.976 12.5762 125.976 13.6414C125.976 14.9247 127.396 15.0612 129.062 15.2797C131.411 15.5801 134.278 16.0172 134.279 19.1031C134.279 21.8341 132.067 23.61 128.68 23.6101C125.293 23.6101 123.163 21.8072 123.081 19.3492H125.703C125.757 20.4689 126.796 21.2609 128.68 21.2609C130.646 21.2608 131.656 20.4143 131.656 19.3492C131.656 18.0656 130.236 17.9013 128.544 17.6828C126.195 17.3824 123.354 16.9456 123.354 13.8593C123.354 11.2102 125.43 9.40781 128.652 9.40781Z" fill="var(--fill-0, #565656)"/>
<path id="Vector_8" d="M138.387 16.8086C138.387 19.731 139.999 21.2063 142.456 21.2063C144.915 21.2063 146.526 19.7309 146.526 16.8086V9.7625H149.12V16.8086C149.12 21.2877 146.444 23.6094 142.456 23.6094C138.469 23.6094 135.792 21.315 135.792 16.8086V9.7625H138.387V16.8086Z" fill="var(--fill-0, #565656)"/>
<path id="Vector_9" d="M44.3859 20.6875H54.4094V23.2547H41.6V5.39297H44.3859V20.6875Z" fill="var(--fill-0, #565656)"/>
<path id="Vector_10" d="M105.154 23.2547H102.559V9.7625H105.154V23.2547Z" fill="var(--fill-0, #565656)"/>
<path id="Vector_11" d="M166.208 9.40781C169.376 9.40781 171.78 11.3197 171.78 15.4437V23.2547H169.185V15.4437C169.185 12.9313 167.847 11.811 165.962 11.8109C164.133 11.8109 162.766 12.9857 162.766 15.4437V23.2547H160.172V15.4437C160.172 12.9857 158.779 11.8109 156.95 11.8109C155.065 11.811 153.726 12.9312 153.726 15.4437V23.2547H151.132V15.4437C151.132 11.3197 153.536 9.40781 156.704 9.40781C158.779 9.40789 160.527 10.3365 161.455 12.0844C162.384 10.3365 164.105 9.40781 166.208 9.40781Z" fill="var(--fill-0, #565656)"/>
<path id="Vector_12" d="M103.843 4C104.881 4 105.645 4.76462 105.646 5.80234C105.646 6.84018 104.881 7.63282 103.843 7.63282C102.805 7.6327 102.041 6.84011 102.041 5.80234C102.041 4.76469 102.805 4.0001 103.843 4Z" fill="var(--fill-0, #565656)"/>
</g>
<defs>
<clipPath id="clip0_0_82">
<rect width="172" height="32" fill="white"/>
</clipPath>
</defs>
</svg>
